<?xml version="1.0" standalone="no"?>
<!DOCTYPE svg PUBLIC "-//W3C//DTD SVG 20010904//EN"
 "http://www.w3.org/TR/2001/REC-SVG-20010904/DTD/svg10.dtd">
<svg version="1.0" xmlns="http://www.w3.org/2000/svg"
 width="1280.000000pt" height="1280.000000pt" viewBox="0 0 1280.000000 1280.000000"
 preserveAspectRatio="xMidYMid meet">
<metadata>
Created by potrace 1.11, written by Peter Selinger 2001-2013
</metadata>
<g transform="translate(0.000000,1280.000000) scale(0.100000,-0.100000)"
fill="#000000" stroke="none">
<path d="M0 6400 l0 -6400 6400 0 6400 0 0 6400 0 6400 -6400 0 -6400 0 0
-6400z m7546 2131 c89 -69 81 -198 -16 -252 l-40 -23 0 -330 c0 -208 -4 -346
-11 -370 -6 -22 -26 -55 -45 -75 l-33 -36 -143 -3 -142 -4 -39 -35 c-37 -33
-43 -35 -90 -30 -43 4 -56 10 -79 38 -48 57 -35 138 28 180 58 38 151 11 173
-52 l11 -31 121 4 c118 3 121 4 145 31 l24 28 0 344 0 344 -28 16 c-90 53
-100 194 -18 255 35 26 50 30 102 27 35 -2 61 -11 80 -26z m-2229 -33 c38 -17
66 -46 88 -93 16 -34 16 -45 6 -85 -14 -51 -13 -52 94 -125 28 -19 113 -79
190 -135 77 -55 156 -108 175 -117 23 -11 68 -19 130 -21 l95 -4 11 31 c15 38
68 71 117 71 28 0 46 -8 74 -34 34 -30 37 -38 37 -86 0 -48 -3 -56 -37 -86
-51 -47 -106 -47 -161 -2 -37 30 -43 32 -145 35 -80 3 -118 9 -153 25 -27 12
-48 25 -48 30 0 4 -6 8 -13 8 -8 0 -22 9 -32 20 -10 11 -24 20 -32 20 -7 0
-16 7 -19 15 -4 8 -10 15 -15 15 -5 0 -32 16 -59 35 -28 19 -74 52 -102 72
-189 132 -178 126 -204 114 -36 -16 -104 -12 -139 8 -48 28 -84 89 -84 141 0
110 125 192 226 148z m705 -48 c40 -12 95 -60 109 -97 8 -23 11 -23 166 -24
178 -2 197 -5 239 -37 29 -24 29 -25 32 -144 l4 -120 38 -37 c64 -61 65 -118
4 -179 -32 -32 -38 -34 -82 -30 -58 6 -94 34 -111 86 -15 46 2 93 48 135 30
27 31 29 31 119 0 132 6 128 -197 128 -160 0 -164 0 -173 -22 -44 -105 -188
-130 -267 -46 -40 43 -55 116 -34 171 14 35 68 85 104 96 43 12 46 12 89 1z
m635 -769 c35 -10 67 -36 95 -78 17 -26 18 -58 18 -436 0 -437 1 -427 -50
-478 -46 -46 -65 -49 -347 -49 l-268 1 -40 27 c-81 56 -80 51 -83 459 -4 416
0 457 53 510 19 19 47 38 62 43 38 11 521 12 560 1z m-1327 -50 c19 -10 48
-37 63 -60 l28 -41 113 0 114 0 40 40 c30 31 47 40 73 40 77 0 134 -81 111
-158 -18 -58 -44 -77 -108 -77 -50 0 -57 3 -88 38 l-33 38 -113 -3 -113 -3
-17 -33 c-36 -66 -88 -90 -172 -79 -51 7 -87 32 -115 83 -28 51 -28 85 1 142
44 86 135 117 216 73z m183 -309 c42 -22 70 -50 85 -84 15 -37 41 -35 73 5 37
46 86 62 133 42 42 -18 76 -67 76 -110 0 -61 -65 -125 -126 -125 -14 0 -43 19
-71 45 -26 25 -53 45 -60 45 -8 0 -19 -12 -25 -27 -24 -55 -91 -103 -143 -103
-35 0 -99 34 -124 66 -37 47 -46 97 -27 147 36 96 131 141 209 99z m2113 -11
c82 -37 115 -131 75 -215 -33 -68 -88 -94 -182 -88 -29 2 -109 73 -109 97 0
13 -22 15 -151 15 l-152 0 -33 -34 c-42 -43 -82 -53 -128 -31 -45 21 -76 71
-76 120 0 29 7 44 34 71 30 30 40 34 86 34 47 0 56 -4 86 -35 l33 -35 146 0
c141 0 146 1 155 23 23 54 84 95 145 96 17 0 48 -8 71 -18z m-1769 -377 c51
-58 43 -122 -22 -176 -27 -23 -102 -23 -136 0 -14 9 -35 27 -47 40 -20 20 -31
22 -139 22 -217 0 -223 -7 -223 -270 l0 -170 25 -10 c48 -18 95 -90 95 -145 0
-64 -67 -150 -126 -161 -111 -21 -199 52 -197 164 0 43 6 60 30 90 16 20 43
44 59 52 l29 17 6 189 c6 193 8 209 41 257 39 55 81 67 245 67 l148 0 25 31
c33 40 55 50 110 45 37 -3 51 -11 77 -42z m1176 32 c18 -7 41 -25 50 -40 l17
-26 149 0 c161 0 185 -6 233 -57 47 -50 58 -106 58 -294 l0 -169 28 -11 c96
-37 122 -177 47 -254 -57 -59 -118 -70 -189 -34 -63 32 -81 62 -81 140 0 56 4
71 28 102 15 20 39 40 53 43 l25 6 -3 199 c-4 258 7 244 -192 244 l-144 0 -38
-37 c-33 -34 -43 -38 -86 -38 -59 0 -103 28 -119 77 -35 106 61 193 164 149z
m-775 -426 c7 0 26 -14 42 -30 90 -92 -31 -251 -142 -187 -29 16 -57 48 -58
65 0 11 -37 13 -183 10 -213 -4 -217 -5 -217 -86 0 -46 2 -50 37 -68 71 -38
103 -136 67 -207 -66 -127 -236 -126 -295 2 -31 66 -20 121 37 177 24 24 50
44 57 44 10 0 16 19 19 64 6 68 30 116 71 138 14 7 95 13 220 16 195 5 198 5
214 28 17 26 66 45 98 38 11 -2 26 -4 33 -4z m364 -30 c27 -29 32 -30 115 -31
122 -1 186 -11 210 -34 32 -32 53 -84 53 -134 0 -43 3 -48 35 -65 78 -42 107
-163 56 -234 -62 -88 -179 -94 -255 -13 -24 25 -30 42 -34 88 -5 76 8 106 63
145 43 31 45 34 45 84 0 72 -10 78 -139 82 l-106 4 -18 -32 c-11 -17 -38 -41
-63 -53 l-44 -21 -46 22 c-53 26 -79 75 -70 130 15 94 134 131 198 62z m4118
-1210 c0 -150 4 -250 9 -250 6 0 16 8 23 18 20 26 88 77 133 98 55 26 235 27
280 1 17 -9 35 -17 41 -17 14 0 124 -99 124 -113 0 -6 6 -18 13 -26 7 -9 22
-36 32 -61 17 -40 19 -79 23 -372 l3 -328 -70 0 -71 0 0 298 c0 352 -3 367
-86 448 -46 45 -60 53 -114 62 -107 19 -212 -15 -269 -86 -67 -87 -66 -77 -69
-414 l-4 -308 -64 0 -64 0 0 650 0 650 65 0 65 0 0 -250z m-8085 125 l0 -90
-75 0 -75 0 -3 79 c-2 44 -1 85 2 93 4 10 24 13 78 11 l73 -3 0 -90z m4285
-80 l0 -165 105 0 105 0 0 -60 0 -60 -89 0 c-49 0 -96 -3 -105 -6 -14 -5 -16
-51 -16 -405 l0 -399 -70 0 -70 0 -2 403 -3 402 -93 3 -93 3 3 57 3 57 93 3
92 3 0 158 c0 87 3 161 7 164 3 4 35 7 70 7 l63 0 0 -165z m-4570 70 l0 -65
-210 0 -210 0 0 -550 0 -550 -70 0 -70 0 -2 548 -3 547 -212 3 -213 2 0 65 0
65 495 0 495 0 0 -65z m6228 -2 l3 -63 -209 0 c-182 0 -211 -2 -216 -16 -3 -9
-6 -256 -6 -550 l0 -535 -67 3 -68 3 -3 548 -2 547 -210 0 -210 0 0 65 0 65
493 -2 492 -3 3 -62z m-5176 -240 c7 -6 24 -14 38 -18 30 -9 96 -58 127 -94
l22 -26 1 73 0 72 70 0 70 0 0 -465 0 -465 -70 0 -70 0 0 71 0 71 -32 -36
c-34 -38 -50 -49 -128 -88 -40 -20 -60 -22 -170 -22 -98 0 -131 4 -155 17 -16
9 -34 17 -38 17 -5 0 -32 16 -60 36 -55 38 -106 98 -138 161 -27 52 -59 182
-59 238 0 56 32 186 59 238 32 63 83 123 138 161 28 20 54 36 58 36 4 0 21 6
38 14 18 8 41 17 52 20 35 9 233 0 247 -11z m1126 -12 c52 -27 129 -95 137
-122 9 -27 27 -24 48 9 23 33 96 90 151 116 62 30 214 29 277 -2 116 -57 183
-155 200 -294 5 -46 8 -202 7 -348 l-3 -265 -67 -3 -67 -3 -3 323 c-3 308 -4
325 -24 363 -50 91 -110 128 -210 128 -107 -1 -185 -54 -224 -154 -18 -46 -20
-74 -20 -354 l0 -305 -70 0 -70 0 0 308 c0 344 -4 372 -69 439 -43 45 -92 66
-156 66 -106 1 -180 -43 -227 -133 -22 -44 -23 -53 -26 -363 l-4 -318 -66 3
-67 3 0 460 0 460 68 3 67 3 0 -61 c0 -33 2 -60 5 -60 3 0 24 18 47 41 38 37
95 71 143 83 11 3 56 4 100 2 59 -2 91 -8 123 -25z m1584 12 c7 -6 24 -14 38
-18 26 -8 109 -70 123 -92 17 -27 26 -11 29 50 l3 62 68 3 67 3 0 -466 0 -466
-67 3 -68 3 -3 63 c-2 34 -5 62 -7 62 -2 0 -23 -18 -45 -39 -70 -66 -139 -93
-255 -99 -89 -4 -108 -2 -175 22 -41 14 -76 30 -78 36 -2 5 -9 10 -16 10 -25
0 -123 115 -153 181 -63 133 -63 314 0 448 28 59 129 181 151 181 5 0 17 6 25
14 9 7 43 23 76 35 50 18 77 21 167 18 59 -2 113 -8 120 -14z m3041 -28 c70
-35 122 -80 172 -147 43 -57 89 -222 83 -294 l-3 -39 -385 -5 -385 -5 3 -35
c8 -76 85 -181 163 -221 82 -41 223 -43 304 -2 37 19 105 83 105 99 0 18 25
24 96 24 74 0 78 -7 39 -71 -36 -57 -94 -118 -135 -143 -80 -50 -128 -61 -260
-61 -122 1 -127 1 -195 35 -104 50 -169 112 -215 206 -93 189 -56 438 84 577
50 49 76 66 156 101 55 23 68 25 185 22 106 -2 113 -4 188 -41z m972 27 c11
-6 45 -22 75 -36 69 -31 151 -112 184 -182 14 -30 26 -57 26 -59 0 -3 -33 -5
-74 -5 l-74 0 -23 38 c-65 108 -174 154 -307 131 -166 -29 -272 -162 -272
-343 0 -183 105 -316 272 -345 133 -23 258 32 313 140 15 28 18 29 90 29 41 0
75 -2 75 -5 0 -2 -12 -29 -26 -59 -36 -76 -114 -150 -204 -194 -75 -36 -76
-37 -205 -37 -127 0 -131 1 -195 33 -168 85 -260 240 -260 437 0 149 52 272
153 366 46 42 130 87 192 103 36 9 239 0 260 -12z m-7495 -457 l0 -466 -67 3
-68 3 -3 450 c-1 248 0 456 3 463 3 8 27 12 70 12 l65 0 0 -465z"/>
<path d="M7409 8451 c-16 -16 -29 -37 -29 -46 0 -25 46 -65 75 -65 33 0 65 33
65 68 0 33 -8 45 -37 61 -32 16 -41 14 -74 -18z"/>
<path d="M5208 8423 c-22 -6 -42 -57 -34 -87 9 -38 34 -56 76 -56 42 0 67 18
76 55 17 68 -38 109 -118 88z"/>
<path d="M5955 8368 c-29 -16 -55 -50 -55 -74 0 -12 9 -33 21 -48 16 -20 29
-26 60 -26 49 0 79 27 79 73 0 38 -6 47 -42 70 -32 20 -36 20 -63 5z"/>
<path d="M5206 7545 c-53 -49 -20 -135 52 -135 45 0 72 30 72 79 0 31 -6 44
-26 60 -35 28 -65 26 -98 -4z"/>
<path d="M5419 7249 c-45 -16 -60 -82 -31 -127 5 -8 27 -16 50 -19 34 -5 44
-1 66 20 32 32 33 68 4 101 -28 30 -55 37 -89 25z"/>
<path d="M7498 7215 c-29 -39 -23 -80 15 -109 43 -33 58 -33 96 3 59 55 27
131 -55 131 -29 -1 -43 -6 -56 -25z"/>
<path d="M5204 6292 c-18 -12 -44 -56 -44 -73 0 -25 58 -79 84 -79 13 0 35 9
50 21 55 43 23 139 -47 139 -18 0 -37 -4 -43 -8z"/>
<path d="M7445 6274 c-33 -36 -31 -69 4 -105 17 -16 40 -29 54 -29 37 0 77 43
77 83 0 71 -86 104 -135 51z"/>
<path d="M5619 6165 c-43 -23 -45 -91 -4 -125 9 -8 33 -14 52 -14 68 0 98 80
48 129 -27 28 -57 31 -96 10z"/>
<path d="M6905 6155 c-30 -29 -32 -70 -5 -105 26 -34 91 -33 120 1 42 51 6
129 -60 129 -19 0 -40 -9 -55 -25z"/>
<path d="M3233 5059 c-28 -5 -68 -19 -90 -31 -228 -132 -229 -493 0 -626 81
-47 233 -47 314 0 103 61 163 175 163 313 0 137 -61 253 -163 313 -30 17 -145
46 -167 41 -3 -1 -28 -5 -57 -10z"/>
<path d="M5942 5059 c-132 -22 -230 -130 -253 -279 -18 -119 17 -248 89 -323
97 -101 289 -122 405 -44 190 128 196 462 10 596 -65 48 -157 66 -251 50z"/>
<path d="M8890 5056 c-30 -6 -73 -24 -96 -38 -64 -41 -127 -132 -136 -198 l-3
-25 310 0 310 0 -3 25 c-7 49 -44 118 -85 158 -75 74 -187 103 -297 78z"/>
</g>
</svg>
